<?xml version="1.0" encoding="utf-8"?>
<svg viewBox="53.101 289.919 400 115.173" xmlns="http://www.w3.org/2000/svg">
  <path fill-rule="evenodd" clip-rule="evenodd" d="M 55.808 320.354 C 54.132 321.328 53.101 323.12 53.101 325.059 L 53.101 367.947 C 53.101 369.885 54.132 371.677 55.808 372.652 L 111.604 405.092 L 111.604 404.921 L 167.401 372.481 C 169.077 371.507 170.108 369.715 170.108 367.777 L 170.108 326.658 C 170.108 324.559 167.833 323.25 166.019 324.305 L 114.311 354.368 C 112.636 355.342 111.604 357.134 111.604 359.073 L 111.604 366.996 L 57.635 335.618 L 111.604 304.241 L 111.604 292.644 C 111.604 290.545 109.33 289.237 107.516 290.292 L 55.808 320.354 Z M 128.948 359.63 C 128.529 359.873 128.271 360.322 128.271 360.806 L 128.271 364.283 C 128.271 364.808 128.84 365.135 129.294 364.871 L 156.846 348.852 C 157.265 348.609 157.523 348.16 157.523 347.676 L 157.523 344.198 C 157.523 343.674 156.954 343.347 156.5 343.611 L 128.948 359.63 Z" fill="#335BF1"/>
  <path d="M 92.104 347.735 C 92.104 345.796 93.134 344.004 94.811 343.03 L 146.518 312.967 C 148.332 311.913 150.606 313.221 150.606 315.32 L 150.606 326.917 L 92.104 360.93 L 92.104 347.735 Z" fill="#335BF1"/>
  <path d="M 72.602 336.397 C 72.602 334.458 73.634 332.667 75.309 331.692 L 127.017 301.629 C 128.831 300.575 131.106 301.884 131.106 303.981 L 131.106 315.579 L 72.602 349.592 L 72.602 336.397 Z" fill="#335BF1"/>
  <path d="M 227.58 387.198 C 222.819 387.198 218.251 386.429 213.874 384.892 C 209.574 383.278 205.774 380.895 202.472 377.743 C 199.247 374.515 196.675 370.518 194.756 365.752 C 192.836 360.909 191.877 355.298 191.877 348.918 C 191.877 342.615 192.874 337.042 194.871 332.2 C 196.867 327.28 199.516 323.168 202.818 319.862 C 206.196 316.48 210.035 313.905 214.335 312.137 C 218.712 310.369 223.28 309.486 228.04 309.486 C 233.032 309.486 237.485 310.484 241.4 312.483 C 245.317 314.405 248.618 316.711 251.305 319.401 L 240.94 332.084 C 239.097 330.47 237.177 329.163 235.181 328.164 C 233.262 327.088 231.035 326.55 228.501 326.55 C 226.274 326.55 224.163 327.05 222.167 328.049 C 220.247 329.048 218.519 330.47 216.984 332.315 C 215.525 334.16 214.335 336.427 213.414 339.118 C 212.569 341.808 212.147 344.844 212.147 348.226 C 212.147 355.298 213.606 360.718 216.523 364.484 C 219.518 368.25 223.434 370.134 228.271 370.134 C 231.189 370.134 233.761 369.519 235.987 368.289 C 238.291 366.982 240.249 365.445 241.861 363.677 L 252.227 376.129 C 249.002 379.819 245.278 382.586 241.055 384.43 C 236.908 386.275 232.417 387.198 227.58 387.198 Z" fill="#335BF1"/>
  <path d="M 276.406 387.198 C 273.027 387.198 270.186 386.698 267.883 385.699 C 265.656 384.623 263.852 383.124 262.47 381.203 C 261.087 379.281 260.089 377.013 259.475 374.4 C 258.938 371.709 258.669 368.75 258.669 365.522 L 258.669 305.565 L 278.479 305.565 L 278.479 366.213 C 278.479 368.212 278.824 369.557 279.515 370.249 C 280.283 370.941 281.013 371.286 281.704 371.286 C 282.087 371.286 282.394 371.286 282.625 371.286 C 282.932 371.286 283.316 371.209 283.777 371.056 L 286.08 385.584 C 285.005 386.045 283.662 386.429 282.049 386.737 C 280.513 387.044 278.632 387.198 276.406 387.198 Z" fill="#335BF1"/>
  <path d="M 317.389 387.198 C 313.167 387.198 309.251 386.545 305.642 385.238 C 302.034 383.854 298.885 381.894 296.198 379.358 C 293.587 376.744 291.515 373.554 289.979 369.788 C 288.443 366.021 287.675 361.755 287.675 356.989 C 287.675 352.301 288.443 348.111 289.979 344.422 C 291.591 340.655 293.664 337.465 296.198 334.852 C 298.808 332.238 301.765 330.239 305.066 328.856 C 308.368 327.472 311.785 326.78 315.317 326.78 C 319.54 326.78 323.225 327.511 326.373 328.971 C 329.521 330.432 332.132 332.43 334.205 334.967 C 336.278 337.503 337.813 340.462 338.812 343.845 C 339.887 347.227 340.424 350.84 340.424 354.683 C 340.424 356.451 340.309 358.104 340.079 359.641 C 339.925 361.179 339.772 362.293 339.618 362.985 L 306.794 362.985 C 307.715 366.444 309.366 368.865 311.747 370.249 C 314.126 371.556 316.929 372.209 320.154 372.209 C 322.15 372.209 324.07 371.94 325.913 371.402 C 327.832 370.787 329.828 369.903 331.901 368.75 L 338.351 380.511 C 335.203 382.74 331.709 384.43 327.87 385.584 C 324.108 386.66 320.615 387.198 317.389 387.198 Z M 306.564 350.071 L 323.609 350.071 C 323.609 347.842 323.033 345.92 321.881 344.306 C 320.806 342.615 318.772 341.769 315.777 341.769 C 313.551 341.769 311.593 342.423 309.904 343.73 C 308.291 345.037 307.178 347.15 306.564 350.071 Z" fill="#335BF1"/>
  <path d="M 365.316 385.814 C 356.299 385.814 348.989 378.505 348.989 369.488 L 348.989 328.164 L 360.377 328.164 C 363.092 328.164 365.392 330.166 365.767 332.855 L 366.496 338.08 L 366.956 338.08 C 369.106 334.16 371.64 331.315 374.557 329.547 C 377.552 327.703 380.47 326.78 383.311 326.78 C 385.077 326.78 386.497 326.896 387.572 327.126 C 388.647 327.28 389.606 327.549 390.451 327.933 L 387.226 344.998 C 386.151 344.767 385.115 344.575 384.117 344.422 C 383.195 344.191 382.082 344.075 380.777 344.075 C 378.704 344.075 376.515 344.806 374.212 346.267 C 371.985 347.65 370.181 350.148 368.799 353.76 L 368.799 385.814 L 365.316 385.814 Z" fill="#335BF1"/>
  <path d="M 411.151 385.814 C 402.134 385.814 394.824 378.505 394.824 369.488 L 394.824 305.565 L 414.173 305.565 L 414.173 348.226 L 414.634 348.226 L 425.625 334.352 C 428.721 330.443 433.435 328.164 438.422 328.164 L 451.949 328.164 L 431.449 352.147 L 453.101 385.814 L 441.238 385.814 C 435.334 385.814 429.89 382.626 427.001 377.478 L 420.162 365.291 L 414.173 371.978 L 414.173 385.814 L 411.151 385.814 Z" fill="#335BF1"/>
</svg>