<?xml version="1.0" encoding="utf-8"?>
<svg viewBox="61.535 27.061 400 105.882" xmlns="http://www.w3.org/2000/svg">
  <defs>
    <clipPath id="clip-path">
      <rect class="cls-1" width="272" height="72" style="fill: none;"/>
    </clipPath>
  </defs>
  <g class="cls-2" style="clip-path: url(#clip-path);" transform="matrix(1.470588, 0, 0, 1.470588, 61.535492, 27.061338)">
    <path class="cls-3" d="M85.87,29V26.42c0-8.63,7.27-15,15.81-15a15.42,15.42,0,0,1,4.18.52l-2,7.71a6.38,6.38,0,0,0-2.22-.35,7.15,7.15,0,0,0-7.43,7.16v2.63H104.5v6.45H94.25V68.35H85.87V35.5h-5V29Z" style="fill: rgb(58, 26, 182);"/>
    <path class="cls-3" d="M106.19,48.7c0-11.36,8-20.08,18.62-20.08A15.55,15.55,0,0,1,137.89,36v-7h8.35V68.35h-8.37v-7a15.78,15.78,0,0,1-13.08,7.43C114.22,68.78,106.19,60,106.19,48.7Zm8.37,0c0,7.59,5.21,13.53,11.62,13.53,5.46,0,11.71-4.64,11.71-13.53,0-7.5-5-13.53-11.71-13.53C119.77,35.17,114.56,41.27,114.56,48.7Z" style="fill: rgb(58, 26, 182);"/>
    <path class="cls-3" d="M151.63,51.84V29.06h8.29V52.38a9.15,9.15,0,0,0,9,9.44,10.41,10.41,0,0,0,10.42-10V29.09h8.28V68.37h-8.28V63.05a14.78,14.78,0,0,1-11.71,5.77C157.6,68.78,151.63,61,151.63,51.84Z" style="fill: rgb(58, 26, 182);"/>
    <path class="cls-3" d="M192.29,68.33V29h8.28v5.33a14.58,14.58,0,0,1,11.71-5.78c10,0,16.06,7.79,16.06,16.94V68.31h-8.28V45a9.17,9.17,0,0,0-9.14-9.43,10.47,10.47,0,0,0-10.35,10V68.28h-8.28Z" style="fill: rgb(58, 26, 182);"/>
    <path class="cls-3" d="M232.09,48.7c0-11.36,8-20.08,18.63-20.08A15.55,15.55,0,0,1,263.79,36v-7h8.38V68.35h-8.38v-7a15.75,15.75,0,0,1-13.07,7.43C240.12,68.78,232.09,60,232.09,48.7Zm8.38,0c0,7.59,5.2,13.53,11.61,13.53,5.46,0,11.71-4.64,11.71-13.53,0-7.5-5-13.53-11.71-13.53C245.67,35.17,240.47,41.27,240.47,48.7Z" style="fill: rgb(58, 26, 182);"/>
    <path class="cls-3" d="M49.47,15.14C45.1,16.63,43,19.3,41.56,23.46a7.46,7.46,0,0,1-2.34,3.17l3.59,3.93L31.42,22.42,0,0S2.27,15,3.05,20.58c.56,3.9,1.51,5.65,4.52,7.42l1.2.67L14,31.46l-3.07-1.64,14.2,7.93L25,38,9.7,30.72c.81,2.84,2.38,8.31,3.05,10.72.72,2.6,1.53,3.55,4,4.47l4.56,1.7,2.82-1.13-3.58,2.43L2.61,72.16c11.92-11.3,22-15.33,29.39-18.61,9.42-4.17,15.09-6.84,18.79-16.44,2.64-6.74,4.7-15.37,7.31-18.71l5.58-7.28S52.13,14.24,49.47,15.14Z" style="fill: rgb(58, 26, 182);"/>
  </g>
</svg>