<?xml version="1.0" encoding="utf-8"?>
<svg viewBox="53.89 162.86 399.614 99.77" xmlns="http://www.w3.org/2000/svg">
  <path d="M 135.261 238.975 C 136.119 250.4 136.119 255.711 136.119 261.557 L 109.943 261.557 C 109.943 260.27 109.943 259.144 109.997 257.963 C 110.05 254.316 110.157 250.454 109.567 242.73 C 108.763 231.412 103.935 228.89 95.085 228.89 L 87.2 228.89 L 53.89 228.89 L 53.89 208.346 L 96.319 208.346 C 107.529 208.346 113.161 204.913 113.161 195.795 C 113.161 187.803 107.529 182.922 96.319 182.922 L 53.89 182.922 L 53.89 162.86 L 100.986 162.86 C 126.41 162.86 139.015 174.929 139.015 194.239 C 139.015 208.668 130.112 218.109 118.15 219.665 C 128.288 221.757 134.189 227.55 135.261 238.975 Z" class="st1" style="clip-rule: evenodd; fill: rgb(18, 18, 18); fill-rule: evenodd;"/>
  <path d="M 53.89 261.61 L 53.89 246.269 L 81.568 246.269 C 86.181 246.269 87.2 249.702 87.2 251.795 L 87.2 261.61 L 53.89 261.61 Z" class="st2" style="fill: rgb(18, 18, 18);"/>
  <path d="M 451.305 192.63 L 425.343 192.63 L 413.543 209.258 L 402.063 192.63 L 374.225 192.63 L 399.275 226.906 L 372.079 262.469 L 398.041 262.469 L 411.879 243.534 L 425.718 262.469 L 453.504 262.469 L 426.147 225.833 L 451.305 192.63 Z" class="st2" style="fill: rgb(18, 18, 18);"/>
  <path d="M 287.811 204.216 C 284.861 196.063 278.479 190.431 266.195 190.431 C 255.789 190.431 248.333 195.151 244.578 202.822 L 244.578 192.309 L 219.422 192.309 L 219.422 262.147 L 244.578 262.147 L 244.578 227.871 C 244.578 217.358 247.528 210.492 255.789 210.492 C 263.405 210.492 265.283 215.481 265.283 225.082 L 265.283 262.201 L 290.44 262.201 L 290.44 227.925 C 290.44 217.412 293.229 210.546 301.651 210.546 C 309.267 210.546 310.984 215.534 310.984 225.136 L 310.984 262.254 L 336.141 262.254 L 336.141 218.377 C 336.141 203.787 330.562 190.484 311.413 190.484 C 299.774 190.431 291.566 196.385 287.811 204.216 Z" class="st2" style="fill: rgb(18, 18, 18);"/>
  <path d="M 193.191 235.059 C 190.885 240.531 186.486 242.891 179.674 242.891 C 172.057 242.891 165.836 238.814 165.191 230.232 L 213.843 230.232 L 213.843 223.205 C 213.843 204.27 201.56 188.285 178.387 188.285 C 156.771 188.285 140.625 204.109 140.625 226.208 C 140.625 248.469 156.502 261.932 178.709 261.932 C 197.054 261.932 209.819 253.029 213.36 237.044 L 193.191 235.059 Z M 165.514 218.002 C 166.425 211.404 170.019 206.416 178.119 206.416 C 185.575 206.416 189.597 211.726 189.919 218.002 L 165.514 218.002 Z" class="st2" style="fill: rgb(18, 18, 18);"/>
  <path d="M 344.401 192.791 L 344.401 262.63 L 369.558 262.63 L 369.558 192.791 L 344.401 192.791 Z M 344.24 186.194 L 369.719 186.194 L 369.719 163.933 L 344.24 163.933 L 344.24 186.194 Z" class="st2" style="fill: rgb(18, 18, 18);"/>
</svg>