<svg id="Layer_1" data-name="Layer 1" xmlns="http://www.w3.org/2000/svg" width="780" height="208" viewBox="0 0 780 208"><defs><style>.cls-1{fill:none;}</style></defs><title>vercel-logo-freelogovectors.net_</title><path d="M400.83,358.7c-28.5,0-49,18.59-49,46.46s23.1,46.46,51.62,46.46c17.21,0,32.39-6.81,41.78-18.3l-19.74-11.41c-5.22,5.71-13.14,9-22,9-12.37,0-22.87-6.46-26.77-16.78H449a46.46,46.46,0,0,0,.91-9C449.87,377.29,429.35,358.7,400.83,358.7Zm-24.4,37.43c3.23-10.3,12.06-16.78,24.4-16.78s21.19,6.48,24.39,16.78Zm-5.83-65.82L299.08,454.2,227.54,330.31h26.81l44.71,77.43,44.7-77.43Zm-241.73-12.9,95.37,165.18H33.5Zm424.75,87.75c0,15.49,10.12,25.81,25.81,25.81,10.63,0,18.61-4.82,22.71-12.7L622,429.71c-8.2,13.68-23.59,21.91-42.53,21.91-28.52,0-49-18.58-49-46.46s20.55-46.46,49-46.46c18.94,0,34.3,8.24,42.53,21.92l-19.82,11.43c-4.1-7.87-12.08-12.7-22.71-12.7C563.76,379.35,553.62,389.68,553.62,405.16ZM766.5,330.31V449H743.27V330.31ZM678.75,358.7c-28.5,0-49,18.59-49,46.46s23.12,46.46,51.62,46.46c17.21,0,32.39-6.81,41.78-18.3l-19.74-11.41c-5.21,5.71-13.14,9-22,9-12.37,0-22.87-6.46-26.77-16.78h72.32a46.47,46.47,0,0,0,.9-9C727.78,377.29,707.27,358.7,678.75,358.7Zm-24.39,37.43c3.22-10.3,12-16.78,24.39-16.78s21.19,6.48,24.39,16.78ZM522.65,361.29v25a29.75,29.75,0,0,0-8.26-1.26c-15,0-25.81,10.32-25.81,25.81V449H465.35V361.29h23.23V385C488.58,371.92,503.83,361.29,522.65,361.29Z" transform="translate(-10 -296)"/><rect class="cls-1" width="780" height="208"/></svg>